PathFileType	4	(X/Y/Z)	C:\Users\Basilio\Documents\Thesis Gigler\squatting_fais\c3dfiles\047\SLS_pre_back5\markers_experimental.trc
DataRate	CameraRate	NumFrames	NumMarkers	Units	OrigDataRate	OrigDataStartFrame	OrigNumFrames
200.000000	200.000000	4	62	mm	200.000000	652	1304
Frame#	Time	FHD			LBHD			RBHD			C7			T10			CLAV			LSHO			LUUPA			LMUPA			LDUPA			LLEP			LMEP			LRAD			LUL			LRFIN			RSHO			RUPA1			RMUPA			RDUPA			RLEP			RMEP			RRAD			RUFIN			LASI			RASI			USACR			LSACR			RSACR			LTHI1			LTHI2			LTHI3			LTHI4			LLFC			LMFC			LTIB1			LTIB2			LTIB3			LTIB4			LLMAL			LMMAL			LMT1			LMT2			LMT5			RTHI			RTHI2			RTHI3			RTHI4			RLFC			RMFC			RTIB1			RTIB2			RTIB3			RTIB4			RLMAL			RMMAL			RHEE			RMT1			RMT2			RMT5			RUL			*60			*61			
		X1	Y1	Z1	X2	Y2	Z2	X3	Y3	Z3	X4	Y4	Z4	X5	Y5	Z5	X6	Y6	Z6	X7	Y7	Z7	X8	Y8	Z8	X9	Y9	Z9	X10	Y10	Z10	X11	Y11	Z11	X12	Y12	Z12	X13	Y13	Z13	X14	Y14	Z14	X15	Y15	Z15	X16	Y16	Z16	X17	Y17	Z17	X18	Y18	Z18	X19	Y19	Z19	X20	Y20	Z20	X21	Y21	Z21	X22	Y22	Z22	X23	Y23	Z23	X24	Y24	Z24	X25	Y25	Z25	X26	Y26	Z26	X27	Y27	Z27	X28	Y28	Z28	X29	Y29	Z29	X30	Y30	Z30	X31	Y31	Z31	X32	Y32	Z32	X33	Y33	Z33	X34	Y34	Z34	X35	Y35	Z35	X36	Y36	Z36	X37	Y37	Z37	X38	Y38	Z38	X39	Y39	Z39	X40	Y40	Z40	X41	Y41	Z41	X42	Y42	Z42	X43	Y43	Z43	X44	Y44	Z44	X45	Y45	Z45	X46	Y46	Z46	X47	Y47	Z47	X48	Y48	Z48	X49	Y49	Z49	X50	Y50	Z50	X51	Y51	Z51	X52	Y52	Z52	X53	Y53	Z53	X54	Y54	Z54	X55	Y55	Z55	X56	Y56	Z56	X57	Y57	Z57	X58	Y58	Z58	X59	Y59	Z59	X60	Y60	Z60	X61	Y61	Z61	X62	Y62	Z62	

653	3.26	107.2194900512696	1316.465698242188	-1147.068725585938	-74.92951965332033	1292.591552734375	-1158.948364257813	-39.52820587158204	1294.59814453125	-1014.859558105469	-114.8815841674805	1165.4697265625	-1082.574951171875	-318.2713928222657	955.2182617187502	-1017.320007324219	-21.35993194580078	1037.967163085938	-1114.477416992188	-84.3937225341797	1085.7373046875	-1261.204956054688	-92.19514465332033	933.283386230469	-1367.91015625	-41.90929794311524	942.0074462890627	-1370.836303710938	-46.53212356567384	884.094665527344	-1387.046630859375	16.29144477844239	847.545837402344	-1401.57177734375	-3.83191728591919	800.374206542969	-1324.619750976563	204.7144927978516	917.3731689453127	-1240.663696289063	228.2569122314454	845.6079711914065	-1242.3173828125	292.1373596191407	907.932067871094	-1244.513549804688	0.5229830145835878	1088.481567382813	-964.543151855469	55.10941314697267	931.8153076171877	-866.3643188476565	94.04387664794923	937.7713623046877	-895.3745117187502	99.94254302978518	879.3569335937502	-876.4808349609377	160.4507904052735	840.8657836914065	-904.1746215820315	103.4039611816407	787.7351074218752	-950.6278076171877	289.9106750488282	836.5308227539065	-1133.785278320313	287.2602539062501	926.420837402344	-1154.698486328125	-311.5050659179688	687.6967773437501	-1097.734375	-293.1607360839844	693.1787719726564	-870.1802978515627	-420.4091796875001	850.839294433594	-981.948669433594	-447.4324951171876	829.9644165039065	-1007.910888671875	-437.9854125976564	827.922058105469	-950.516296386719	-356.6221923828126	620.4686889648439	-1180.268798828125	-275.5366210937501	601.4985961914064	-1183.52392578125	-246.4939880371094	637.8619384765626	-1167.434204101563	-251.188705444336	547.0148925781251	-1190.484130859375	-138.2847442626953	426.6172790527345	-1172.383544921875	-97.89194488525393	438.253875732422	-1048.958984375	-169.0189361572266	282.2715759277344	-1048.74951171875	-197.4516754150391	233.6196594238282	-1114.735717773438	-189.1036529541016	231.4197845458985	-1068.56982421875	-244.5354919433594	184.1103515625	-1029.062133789063	-340.2790832519532	119.7921905517578	-1065.61376953125	-312.3779907226563	143.8341064453125	-979.3447265625002	-208.6451416015626	63.76181411743165	-993.5762939453127	-207.1402435302735	60.23415374755861	-1038.588745117188	-257.9936218261719	48.30071258544923	-1082.586059570313	-397.0523071289064	547.4590454101564	-771.0191650390627	-360.5219421386719	491.6597900390626	-770.7329101562502	-331.3898010253907	489.5015258789064	-785.0244750976565	-390.4271850585939	412.7496032714845	-766.8164062500001	-397.1639099121095	282.0584411621094	-788.0076293945315	-404.9662475585939	262.8218383789063	-918.840759277344	-502.1157531738282	218.8905639648438	-796.3547973632815	-583.3085327148439	283.1067810058594	-756.2673950195314	-581.8970947265626	236.5796508789063	-764.9075317382814	-632.9874267578126	223.1862182617188	-793.8418579101565	-779.2246093750002	285.7754821777344	-755.3471069335939	-776.400329589844	250.9199523925782	-841.4776611328127	-795.5005493164065	342.9479064941407	-814.6421508789065	-880.9581298828127	151.805404663086	-813.2019042968752	-875.7293090820315	145.999252319336	-770.1312255859377	-885.602722167969	205.6100158691407	-719.7441406250001	229.1355743408204	874.5817871093752	-1159.864868164063	nan	nan	nan	nan	nan	nan	
654	3.265	106.3746566772461	1315.38671875	-1145.792236328125	-73.9423065185547	1291.752197265625	-1159.531372070313	-39.39133453369141	1294.088623046875	-1014.90283203125	-114.6297073364258	1165.2626953125	-1083.013916015625	-318.1160278320313	955.0711669921877	-1017.54150390625	-21.29120635986328	1037.529174804688	-1114.694702148438	-83.95932006835939	1085.093139648438	-1261.47802734375	-91.79529571533205	932.6381835937502	-1368.1201171875	-41.52798080444337	941.4807739257815	-1371.172485351563	-46.13267517089844	883.4611816406252	-1387.158203125	16.76595115661621	846.8527832031252	-1401.644775390625	-3.526613235473634	799.5955200195315	-1324.7392578125	205.2963104248047	916.6638793945315	-1240.654296875	228.606430053711	844.947937011719	-1242.280151367188	292.8381652832032	907.2766723632815	-1244.780029296875	0.6931222081184388	1088.098510742188	-964.6540527343752	55.32715225219728	931.3740844726565	-866.584411621094	94.19017791748048	937.4602050781252	-895.608825683594	100.0982360839844	879.181091308594	-876.6208496093752	160.4746551513672	840.1650390625002	-904.0737304687502	103.4119644165039	787.4807739257815	-950.7049560546877	290.0948486328126	835.6737060546877	-1133.964111328125	287.6214599609376	925.6784667968752	-1154.712768554688	-311.4413452148438	687.4854125976564	-1097.784545898438	-293.0944519042969	693.1608276367189	-870.334899902344	-420.1593017578126	850.6726074218752	-982.003601074219	-447.2067260742189	829.8234863281252	-1007.957946777344	-437.8140563964845	827.852722167969	-950.542419433594	-356.4606933593751	620.5053710937501	-1180.263916015625	-275.2792053222657	601.4003906250001	-1183.464477539063	-246.1659240722657	637.6908569335939	-1167.518432617188	-250.9217071533204	546.9473266601564	-1190.442504882813	-138.0571899414063	426.5222778320314	-1172.376831054688	-97.49696350097659	438.2136840820314	-1048.99072265625	-168.8821411132813	282.2431945800782	-1048.972412109375	-197.3067016601563	233.2829895019532	-1114.8955078125	-189.0245819091797	230.8546295166016	-1069.04150390625	-244.5145874023438	184.3894195556641	-1028.732055664063	-340.1906433105469	119.8870315551758	-1065.577270507813	-312.3358459472657	143.9627380371094	-979.3938598632815	-208.5095520019532	63.80441665649415	-993.689880371094	-207.3075714111329	60.15667724609376	-1038.554321289063	-258.0925598144532	48.31133270263673	-1082.5693359375	-397.1898498535157	547.5866699218751	-770.824401855469	-360.6210327148438	491.663787841797	-770.155944824219	-331.7015686035157	489.3980102539064	-784.6184692382815	-390.8670043945314	412.7731018066407	-766.2303466796876	-397.8328857421876	282.1774597167969	-787.2918090820315	-405.5771789550782	262.6006164550782	-917.9876098632815	-502.7294921875001	218.8858642578126	-795.5681152343752	-583.9318847656251	283.3928222656251	-755.7434692382814	-582.6441650390626	236.7448120117188	-764.4342041015626	-633.7316284179689	223.1835937500001	-793.0993652343752	-779.5654296875002	285.8759765625001	-755.3617553710939	-776.9024658203127	250.9070434570313	-841.2429199218752	-795.9376220703127	342.9461364746094	-814.644470214844	-881.476745605469	152.0274658203125	-813.1218261718752	-876.4835205078127	146.2474975585938	-769.0621337890627	-886.2089843750002	205.8710632324219	-719.7926025390626	229.2537536621094	874.5545654296877	-1159.770263671875	nan	nan	nan	nan	nan	nan	
655	3.27	108.2187881469727	1315.472412109375	-1147.396850585938	-73.69187164306642	1291.577514648438	-1159.880493164063	-39.04431533813477	1293.732666015625	-1015.243347167969	-114.366928100586	1165.058959960938	-1083.374389648438	-317.9271545410157	954.946228027344	-1017.741760253906	-20.91724014282227	1037.19921875	-1114.9462890625	-83.28439331054689	1084.551513671875	-1261.668212890625	-91.52563476562501	932.109802246094	-1368.252807617188	-41.05600357055665	940.9937133789065	-1371.408935546875	-45.6561622619629	882.8435058593752	-1387.38232421875	17.16811752319336	846.242126464844	-1401.686279296875	-3.103809833526612	799.079772949219	-1324.719604492188	205.5489196777344	916.0683593750002	-1240.617431640625	229.4119110107422	843.9727172851565	-1242.329711914063	292.9977722167969	906.3464355468752	-1244.50537109375	1.14458179473877	1087.700561523438	-964.9396972656252	55.30930328369142	930.945251464844	-866.723327636719	94.46131896972658	937.0051269531252	-895.7363281250002	100.2599029541016	878.8953247070315	-876.9002075195315	160.4485931396485	839.6140136718752	-904.2404785156252	103.1686706542969	787.1401977539065	-950.4157714843752	290.3597106933594	834.9268188476565	-1133.722534179688	287.9616699218751	924.950622558594	-1154.816528320313	-311.0285949707032	687.4953002929689	-1097.738037109375	-293.0150451660157	693.0541381835939	-870.2642211914065	-420.0245666503907	850.623962402344	-982.034606933594	-446.9679260253907	829.6972656250002	-1008.028747558594	-437.651580810547	827.750671386719	-950.6362915039065	-356.1375122070313	620.2857055664064	-1180.187866210938	-274.9900207519532	601.2533569335939	-1183.437744140625	-246.1362915039063	637.6381225585939	-1167.327270507813	-250.6172637939454	546.9725341796876	-1190.413208007813	-137.840576171875	426.4494018554689	-1172.316284179688	-97.27296447753909	438.240692138672	-1048.931274414063	-168.3896789550782	282.2113952636719	-1049.142944335938	-197.1675872802735	233.1685180664063	-1114.897216796875	-188.9326171875	230.8242492675782	-1068.929321289063	-244.4561157226563	184.3595581054688	-1028.737426757813	-340.2176818847657	119.9031066894532	-1065.546630859375	-312.3323974609376	143.9183044433594	-979.365661621094	-208.5660400390626	63.76032638549806	-993.6140136718752	-207.0269012451172	60.22108459472658	-1038.621704101563	-258.0075073242188	48.33709716796876	-1082.608642578125	-397.5254821777345	547.5618896484376	-770.3145751953127	-360.8803100585938	491.6638488769532	-769.7632446289065	-331.6902465820313	489.6227111816407	-783.5419921875002	-391.3147583007814	412.8744201660157	-765.7307128906251	-398.3488769531251	282.2843627929688	-786.8323364257815	-405.0801391601564	262.6366271972657	-917.5368652343752	-503.4564819335939	219.099105834961	-795.0279541015627	-584.6397094726564	283.5614318847657	-755.3660888671876	-583.2369995117189	236.6795959472657	-763.9334716796876	-633.9842529296876	223.0553588867188	-793.3682861328127	-780.5214843750002	286.1434326171876	-754.9877929687501	-777.358825683594	250.9039764404297	-841.037048339844	-796.531677246094	342.9610900878907	-814.5178833007815	-882.389343261719	153.8207702636719	-813.643493652344	-877.3093261718752	146.6676330566407	-768.526550292969	-887.0356445312502	206.0646057128907	-719.7980346679689	229.4958648681641	874.4158325195315	-1159.783081054688	nan	nan	nan	nan	nan	nan	
656	3.275	108.6161651611328	1314.798217773438	-1147.672973632813	-73.05123901367189	1291.099975585938	-1160.3447265625	-38.52894592285157	1293.58837890625	-1016.059326171875	-113.772201538086	1164.747192382813	-1083.77392578125	-317.7792663574219	954.8466796875002	-1017.958312988281	-20.90159988403321	1036.779174804688	-1115.096313476563	-82.79464721679689	1084.221557617188	-1262.265014648438	-91.1339797973633	931.5778808593752	-1368.426513671875	-40.72839736938477	940.4126586914065	-1371.619506835938	-45.1597023010254	882.2361450195315	-1387.537475585938	17.39928245544434	845.695251464844	-1401.705444335938	-2.704128026962281	798.6098632812502	-1324.727294921875	206.0309753417969	915.4268798828127	-1240.673095703125	229.6541290283204	843.3037719726565	-1242.207275390625	293.0773925781251	905.4155883789065	-1244.270751953125	1.293333411216736	1087.371826171875	-965.1655273437502	55.3114700317383	930.582214355469	-866.870544433594	94.52033996582033	936.5491333007815	-895.8146972656252	100.3147888183594	878.460876464844	-877.0810546875002	160.4594421386719	839.3489990234377	-904.2061767578127	103.1491470336914	786.8281860351565	-950.4749755859377	290.5511779785157	834.2698974609377	-1133.619018554688	288.2787475585938	924.2742919921877	-1154.650512695313	-310.5926513671876	687.3405151367189	-1097.522338867188	-292.9192199707032	693.0125732421876	-870.0281372070315	-419.8800354003907	850.578308105469	-982.0941162109377	-446.6936645507814	829.460144042969	-1008.109924316406	-437.5093994140626	827.6749267578127	-950.7136840820315	-355.8129882812501	620.1096191406251	-1180.148803710938	-274.7582397460938	601.1983642578126	-1183.36962890625	-245.9036712646485	637.5243530273439	-1167.272094726563	-250.4060211181641	546.9147338867189	-1190.405639648438	-137.6186981201172	426.3953552246095	-1172.338989257813	-96.95613861083987	438.0981445312501	-1049.016845703125	-168.2605590820313	282.0135803222657	-1049.116333007813	-197.1052856445313	233.1230468750001	-1114.860595703125	-188.8504028320313	230.8421783447266	-1068.878784179688	-244.4400787353516	184.3230438232422	-1028.762451171875	-340.1971740722657	120.0157775878907	-1065.508178710938	-312.3074035644532	143.9725036621094	-979.389587402344	-208.4846954345704	63.75524139404298	-993.6096191406252	-207.0584259033204	60.26980209350587	-1038.57421875	-257.9159240722657	48.34297180175783	-1082.650146484375	-397.588104248047	547.6553344726564	-770.1683349609377	-361.1911010742188	491.7491760253907	-769.3569946289065	-331.9475097656251	489.5096435546876	-782.9500122070315	-391.7928771972657	412.9013671875001	-765.1942138671876	-399.0300598144532	282.2457275390626	-786.2482910156252	-405.7232666015626	262.4802551269532	-916.840270996094	-503.9764404296876	218.9813537597657	-794.7153320312502	-585.2633666992189	283.6359558105469	-754.8456420898439	-583.8968505859376	236.8682250976563	-763.2383422851564	-634.6535644531251	223.2667999267579	-792.789245605469	-781.2945556640627	286.2159729003907	-754.8012695312501	-777.8284912109377	250.8433685302735	-840.7419433593752	-797.1968383789065	343.1232910156251	-814.348815917969	-883.1507568359377	153.9160461425782	-813.4233398437502	-878.1140136718752	146.6293334960938	-768.5474243164065	-887.9626464843752	206.2860565185547	-719.5705566406251	229.7246704101563	874.1462402343752	-1160.272338867188	nan	nan	nan	nan	nan	nan	
